# Blender v2.83.0 OBJ File: ''
# www.blender.org
mtllib Player_Head.mtl
o Cube.001
v 0.231250 0.481250 0.231250
v 0.231250 0.481250 -0.231250
v -0.231250 0.481250 -0.231250
v -0.231250 0.481250 0.231250
v -0.231250 0.018750 0.231250
v -0.231250 0.018750 -0.231250
v 0.231250 0.018750 -0.231250
v 0.231250 0.018750 0.231250
vt 0.249800 0.750200
vt 0.249800 0.999800
vt 0.125200 0.999800
vt 0.125200 0.750200
vt 0.124800 0.500600
vt 0.124800 0.748000
vt 0.000200 0.748000
vt 0.000200 0.500200
vt 0.499900 0.500400
vt 0.499900 0.749600
vt 0.375100 0.749600
vt 0.375100 0.500400
vt 0.250200 0.999800
vt 0.250200 0.750200
vt 0.374800 0.750200
vt 0.374800 0.999800
vt 0.249800 0.500200
vt 0.250000 0.750000
vt 0.125000 0.750000
vt 0.125000 0.500000
vt 0.374900 0.500400
vt 0.374900 0.749600
vt 0.250100 0.749600
vt 0.250100 0.500400
vn -0.0000 1.0000 -0.0000
vn -1.0000 -0.0000 0.0000
vn -0.0000 -0.0000 -1.0000
vn 0.0000 -1.0000 0.0000
vn 0.0000 0.0000 1.0000
vn 1.0000 0.0000 -0.0000
usemtl Material.001
s 1
f 1/1/1 2/2/1 3/3/1 4/4/1
f 5/5/2 4/6/2 3/7/2 6/8/2
f 6/9/3 3/10/3 2/11/3 7/12/3
f 7/13/4 8/14/4 5/15/4 6/16/4
f 8/17/5 1/18/5 4/19/5 5/20/5
f 7/21/6 2/22/6 1/23/6 8/24/6
